<svg width="20" height="20" fill="none" xmlns="http://www.w3.org/2000/svg"><g clip-path="url(#clip0_2_287)" fill="#1976D2"><path d="M14.415 8.63h3.673v6.486h-3.673V8.63zm-6.251 0h3.672v6.486H8.164V8.63zm10.627 7.658H1.209c-.646 0-1.172.526-1.172 1.172v1.368A1.172 1.172 0 001.208 20h17.583c.647 0 1.173-.526 1.173-1.172V17.46c0-.646-.526-1.172-1.172-1.172zM19.23 3.68L10.434.084a1.167 1.167 0 00-.875.002L.77 3.68c-.446.18-.734.606-.734 1.087v1.518c0 .647.526 1.172 1.172 1.172h17.583c.647 0 1.173-.525 1.173-1.172V4.767c0-.48-.288-.907-.735-1.087zm-8.644.69a.586.586 0 01-1.172 0V3.12a.586.586 0 011.172 0v1.25zM1.912 8.63h3.673v6.486H1.912V8.63z"/></g><defs><clipPath id="clip0_2_287"><path fill="#fff" d="M0 0h20v20H0z"/></clipPath></defs></svg>