<svg width="174" height="174" fill="none" xmlns="http://www.w3.org/2000/svg"><path d="M127.09 59.343l-1.173-2.091 13.61-2.072 1.013 1.806-8.858 10.547-1.173-2.092 2.073-2.329-2.424-4.322-3.068.553zm4.985-.898l1.796 3.204 3.731-4.203-5.527 1zm-3.179 13.512l-.627-2.103 12.704-3.789.579 1.942-.916.366c.442.182.82.448 1.134.797.313.35.549.79.708 1.322.231.775.23 1.486-.001 2.134-.232.648-.658 1.212-1.278 1.692-.618.486-1.391.868-2.318 1.144l-.178.053c-.894.266-1.735.367-2.524.3-.782-.062-1.456-.298-2.022-.708-.563-.405-.959-.988-1.187-1.752-.155-.52-.204-1.004-.147-1.452.058-.448.204-.864.441-1.249l-4.368 1.303zm9.357 1.402a5.046 5.046 0 001.421-.655c.407-.269.694-.594.863-.977.176-.38.192-.812.047-1.298-.133-.447-.337-.79-.611-1.027a1.992 1.992 0 00-.968-.46l-3.994 1.191a2.171 2.171 0 00-.57.909c-.11.353-.096.761.042 1.225.145.486.398.839.759 1.057.361.219.787.329 1.28.33a5.4 5.4 0 001.553-.242l.178-.053zm-7.399 7.809l-.189-2.186 13.207-1.142.175 2.019-.971.172c.396.268.712.605.949 1.01.236.407.378.886.426 1.438.07.806-.074 1.502-.432 2.09-.358.587-.889 1.054-1.593 1.399-.704.35-1.538.568-2.502.651l-.185.016c-.929.08-1.773.009-2.533-.216-.753-.219-1.365-.586-1.836-1.102-.471-.51-.74-1.162-.809-1.955-.047-.541.003-1.025.15-1.453.147-.427.374-.805.684-1.133l-4.541.392zm8.881 3.265a5.064 5.064 0 001.524-.354c.452-.181.799-.442 1.042-.783.249-.335.352-.756.309-1.261-.041-.465-.171-.841-.391-1.13a1.998 1.998 0 00-.856-.646l-4.152.36a2.17 2.17 0 00-.742.774c-.179.324-.248.726-.206 1.208.044.506.22.902.529 1.19.309.286.705.48 1.188.58.482.1 1.005.127 1.57.078l.185-.016zm-5.187 6.678l.199-2.185 9.536.867-.189 2.08-1.108-.039c.372.277.656.605.853.984.196.386.272.822.227 1.31-.011.123-.035.26-.073.41a1.786 1.786 0 01-.11.337l-2.07-.206a8.52 8.52 0 00.084-.428c.031-.145.053-.291.066-.438.047-.517-.014-.95-.184-1.296a1.816 1.816 0 00-.78-.809l-6.451-.587zm4.13 6.103c.898.25 1.652.645 2.261 1.182a4.168 4.168 0 011.271 1.935c.229.756.219 1.583-.031 2.481-.254.909-.675 1.628-1.263 2.156a4.092 4.092 0 01-2.089.997c-.799.145-1.648.092-2.546-.159l-.179-.05c-.892-.249-1.646-.643-2.261-1.182a4.103 4.103 0 01-1.262-1.932c-.231-.751-.221-1.578.031-2.482.252-.903.672-1.619 1.261-2.147a4.158 4.158 0 012.082-1.008c.805-.143 1.654-.09 2.546.16l.179.05zm-.768 2.064a5.025 5.025 0 00-1.562-.197c-.492.028-.92.166-1.283.414-.363.248-.616.627-.759 1.139-.141.506-.119.956.065 1.35.182.4.477.736.885 1.009.412.281.89.497 1.436.649l.179.05c.534.149 1.05.211 1.547.184a2.478 2.478 0 001.297-.401c.369-.246.625-.625.767-1.136.142-.506.118-.96-.07-1.361-.19-.396-.49-.734-.902-1.014a4.962 4.962 0 00-1.421-.636l-.179-.05zm-1.27 16.344l-1.032 2.026-7.029-7.296.888-1.742 10.046 1.374-1.037 2.034-6.995-1.28 5.159 4.884zm-13.324 2.147c.587-.747 1.253-1.266 2-1.558a4.234 4.234 0 012.292-.224c.782.141 1.514.48 2.196 1.016l.285.224c.784.616 1.349 1.3 1.696 2.052.351.757.485 1.518.4 2.284-.088.771-.389 1.484-.903 2.138-.568.724-1.198 1.201-1.889 1.431-.686.233-1.401.25-2.143.049-.738-.197-1.471-.582-2.2-1.154l-.744-.585 3.86-4.913c-.607-.402-1.236-.577-1.885-.524-.644.057-1.196.377-1.655.962-.317.403-.519.822-.606 1.257-.086.435-.072.885.043 1.35l-1.616.194c-.167-.522-.211-1.134-.132-1.837.084-.699.418-1.42 1.001-2.162zm6.587 4.837c.361-.459.488-.956.382-1.489-.106-.533-.406-1.058-.901-1.575l-2.493 3.174.132.103c.3.221.619.378.958.472.335.098.669.098 1.002-.001.329-.094.636-.322.92-.684zm-6.971 3.178c.621.742 1.051 1.49 1.29 2.244.238.763.273 1.48.104 2.152-.164.676-.547 1.266-1.149 1.77-.398.333-.812.556-1.241.669a3.068 3.068 0 01-1.319.077l3.152 3.767-1.683 1.408-8.724-10.423 1.526-1.278.735.712a3.2 3.2 0 01.267-1.377c.193-.431.502-.825.927-1.18.593-.497 1.239-.764 1.937-.802.703-.034 1.406.131 2.111.495.7.368 1.35.909 1.948 1.624l.119.142zm-1.802 1.266a5.314 5.314 0 00-1.157-1.051c-.404-.262-.812-.401-1.225-.416-.414-.008-.816.151-1.205.477-.362.303-.592.634-.691.994a2.196 2.196 0 00-.024 1.116l2.596 3.101c.359.154.723.207 1.091.16.368-.039.728-.206 1.081-.501.389-.326.615-.695.677-1.108.061-.414-.001-.846-.187-1.298a5.303 5.303 0 00-.837-1.331l-.119-.143zm-12.697 10.789c.218.516.235 1.009.049 1.478-.186.469-.558.823-1.118 1.059-.57.242-1.089.266-1.555.073-.466-.194-.809-.549-1.027-1.065l-.135-.318c-.218-.516-.233-1.006-.045-1.47.182-.461.559-.813 1.129-1.054.56-.237 1.074-.263 1.544-.077.464.188.805.54 1.023 1.056l.135.318zm-16.456-2.121l2.389-.217-3.663 13.271-2.062.188-6.014-12.391 2.388-.218 1.28 2.843 4.936-.449.746-3.027zm-1.214 4.918l-3.657.333 2.314 5.121 1.343-5.454zm-11.038-8.416l2.176.286-1.726 13.143-2.009-.263.04-.986c-.346.33-.743.566-1.19.71-.448.143-.947.179-1.496.107-.802-.105-1.45-.396-1.948-.872-.497-.476-.838-1.095-1.023-1.857-.192-.763-.225-1.624-.099-2.583l.025-.184c.12-.925.373-1.733.756-2.427.376-.689.866-1.207 1.471-1.556.6-.35 1.294-.473 2.084-.369.538.07 1 .223 1.385.458.386.235.706.539.96.912l.594-4.519zm-5.099 7.971a5.06 5.06 0 00.018 1.564c.08.48.26.876.54 1.186.275.316.663.507 1.166.573.462.061.858.014 1.188-.139.329-.153.6-.385.814-.696l.542-4.133a2.168 2.168 0 00-.597-.89c-.277-.245-.656-.399-1.135-.462-.503-.066-.928.021-1.275.261-.347.24-.621.585-.823 1.035a5.4 5.4 0 00-.413 1.516l-.025.185zm-4.11-9.943l2.074.72-4.347 12.523-1.915-.664.239-.957a3.078 3.078 0 01-1.31.454c-.467.05-.962-.016-1.486-.197-.764-.265-1.34-.681-1.731-1.248-.39-.566-.6-1.241-.627-2.025-.034-.786.108-1.636.426-2.55l.06-.176c.306-.88.716-1.621 1.231-2.223.508-.599 1.093-1.007 1.756-1.227.658-.221 1.363-.201 2.115.06.513.178.934.421 1.265.729.33.308.582.67.756 1.087l1.494-4.306zm-6.604 6.776a5.057 5.057 0 00-.299 1.535c-.019.487.078.911.29 1.272.204.364.546.629 1.025.796.44.153.838.187 1.191.104.354-.083.667-.256.939-.517l1.366-3.938a2.174 2.174 0 00-.405-.993c-.222-.296-.561-.523-1.018-.681-.48-.167-.913-.167-1.302-.002-.388.165-.726.447-1.015.846a5.44 5.44 0 00-.711 1.402l-.061.176zm-3.981-7.461l1.915 1.074-4.684 8.351-1.821-1.021.487-.995c-.405.226-.82.352-1.246.377-.432.021-.861-.088-1.288-.327a2.878 2.878 0 01-.346-.234 1.753 1.753 0 01-.262-.239l1.033-1.805c.11.082.228.165.356.251.12.087.244.167.373.239.453.254.873.375 1.259.361.386-.013.738-.14 1.056-.382l3.168-5.65zm-7.257 1.28c-.595.718-1.262 1.245-2.002 1.582a4.165 4.165 0 01-2.284.37c-.784-.098-1.535-.445-2.253-1.04-.726-.603-1.21-1.281-1.452-2.033a4.091 4.091 0 01-.059-2.314c.195-.789.59-1.542 1.185-2.26l.119-.143c.59-.713 1.258-1.24 2.001-1.581a4.106 4.106 0 012.28-.364c.78.095 1.53.442 2.252 1.041.722.599 1.204 1.275 1.446 2.027.242.753.265 1.524.07 2.313-.198.793-.592 1.547-1.184 2.259l-.119.143zm-1.57-1.544c.361-.436.634-.884.817-1.345a2.48 2.48 0 00.146-1.34c-.078-.433-.322-.818-.73-1.157-.405-.336-.824-.5-1.26-.493-.439.003-.866.136-1.282.396a4.858 4.858 0 00-1.178 1.047l-.119.143a4.77 4.77 0 00-.8 1.337 2.476 2.476 0 00-.163 1.348c.075.437.316.825.725 1.164.404.335.828.499 1.27.491.44-.011.871-.148 1.295-.409.42-.266.806-.612 1.16-1.039l.119-.143zM36.7 121.471l-1.428-1.769 9.53-3.44 1.228 1.522-5.355 8.61-1.434-1.776 4.024-5.864-6.564 2.717zm3.478-13.04c.443.84.645 1.661.606 2.461a4.229 4.229 0 01-.73 2.184c-.448.656-1.056 1.186-1.824 1.59l-.32.169c-.883.465-1.738.702-2.567.711-.833.012-1.583-.177-2.248-.567-.668-.395-1.196-.96-1.583-1.697-.429-.814-.607-1.583-.535-2.308.066-.722.343-1.381.83-1.977.48-.593 1.13-1.105 1.95-1.537l.838-.441 2.91 5.529c.615-.39 1.03-.893 1.247-1.507.212-.611.145-1.246-.202-1.904-.239-.454-.539-.809-.9-1.065a3.078 3.078 0 00-1.25-.513l.482-1.553c.545.059 1.122.269 1.731.628.604.363 1.126.961 1.566 1.797zm-7.104 4.039c.272.517.673.836 1.204.957.53.12 1.132.06 1.805-.181l-1.88-3.57-.148.078a2.917 2.917 0 00-.821.682 1.734 1.734 0 00-.409.915c-.048.339.035.712.25 1.119zm-.057-7.661c-.93.264-1.789.352-2.575.262-.793-.094-1.462-.355-2.007-.783-.55-.426-.932-1.017-1.146-1.772-.142-.499-.177-.968-.105-1.405a3.08 3.08 0 01.468-1.237l-4.725 1.341-.6-2.11 13.077-3.712.544 1.915-.95.38c.445.187.828.455 1.148.806.315.352.548.795.7 1.328.21.744.19 1.442-.06 2.096-.255.655-.693 1.23-1.313 1.725-.621.489-1.38.861-2.277 1.115l-.179.051zm-.42-2.162a5.277 5.277 0 001.432-.627c.404-.262.697-.578.88-.949.176-.375.194-.806.056-1.294-.129-.454-.338-.8-.626-1.037a2.206 2.206 0 00-1.009-.477l-3.89 1.104a2.072 2.072 0 00-.592.931c-.114.352-.11.749.017 1.192.138.488.383.844.736 1.069.352.225.772.345 1.26.36a5.353 5.353 0 001.557-.221l.179-.051zM27.93 86.653c-.561-.011-1.018-.197-1.37-.558-.353-.361-.523-.846-.511-1.453.012-.62.201-1.103.568-1.45.367-.346.83-.514 1.391-.503l.345.007c.56.011 1.014.197 1.361.558.347.355.514.843.502 1.462-.012.607-.199 1.088-.56 1.44-.36.347-.821.515-1.382.504l-.345-.007zm8.65-14.158l-.776 2.27-10.621-8.76.67-1.96 13.767-.433-.776 2.269-3.118.009-1.604 4.689 2.458 1.916zm-3.994-3.115l1.19-3.475-5.62.023 4.43 3.452zm12.188-6.643l-1.149 1.87-11.295-6.94 1.06-1.726.884.439a3.07 3.07 0 01-.162-1.377c.052-.467.222-.937.513-1.41.423-.688.953-1.162 1.59-1.421.637-.26 1.342-.319 2.113-.177.775.137 1.574.458 2.399.965l.158.097c.794.488 1.43 1.048 1.907 1.68.475.624.748 1.284.82 1.979.075.69-.096 1.374-.513 2.053-.284.462-.612.821-.984 1.078-.372.256-.78.424-1.224.504l3.883 2.386zm-5.196-7.907a5.062 5.062 0 00-1.435-.622c-.472-.124-.906-.12-1.304.009-.4.12-.733.398-.998.83-.245.397-.364.777-.358 1.14.005.364.106.707.303 1.028l3.551 2.182c.371.027.724-.033 1.057-.182.337-.153.632-.436.885-.848.265-.432.36-.856.282-1.27-.078-.415-.28-.806-.609-1.174a5.403 5.403 0 00-1.216-.996l-.158-.097zm10.754.305l-1.503 1.599-9.66-9.08 1.388-1.476.777.608a3.074 3.074 0 01.12-1.38c.144-.448.407-.873.786-1.277.554-.59 1.169-.946 1.845-1.072.677-.125 1.379-.04 2.105.254.732.29 1.45.767 2.155 1.43l.135.127c.68.639 1.189 1.316 1.528 2.031.34.708.473 1.409.403 2.104-.066.69-.372 1.326-.917 1.907-.372.395-.766.68-1.182.856a3.11 3.11 0 01-1.3.247l3.32 3.122zm-3.49-8.795a5.063 5.063 0 00-1.28-.9c-.437-.215-.863-.3-1.28-.254-.415.038-.797.242-1.145.612-.319.34-.513.687-.58 1.044-.07.357-.04.713.089 1.068l3.037 2.855a2.17 2.17 0 001.071.035c.36-.082.707-.3 1.038-.652.348-.37.525-.765.533-1.187.008-.422-.112-.846-.359-1.272a5.403 5.403 0 00-.989-1.222l-.135-.127zm8.435-.59l-1.761 1.31-5.714-7.684 1.676-1.246.71.85a2.866 2.866 0 01.165-1.29c.156-.403.43-.75.823-1.043.1-.074.218-.147.355-.22.137-.072.246-.12.325-.142l1.226 1.68c-.119.066-.244.14-.374.223a3.708 3.708 0 00-.37.242c-.418.31-.699.644-.844 1.002a1.814 1.814 0 00-.082 1.12l3.865 5.199zm1.793-7.147c-.413-.836-.622-1.66-.628-2.473a4.17 4.17 0 01.595-2.237c.41-.675 1.033-1.22 1.87-1.632.846-.417 1.662-.582 2.448-.496a4.09 4.09 0 012.136.89c.641.5 1.168 1.168 1.58 2.004l.082.167c.41.83.618 1.655.627 2.473a4.101 4.101 0 01-.599 2.229c-.404.673-1.028 1.217-1.869 1.632-.841.414-1.655.579-2.44.492a4.16 4.16 0 01-2.14-.879c-.644-.505-1.17-1.172-1.58-2.003l-.083-.167zm2.05-.803c.25.508.549.94.895 1.295a2.48 2.48 0 001.164.68c.427.105.878.04 1.354-.195.471-.232.792-.548.964-.948.176-.403.23-.847.161-1.333a4.843 4.843 0 00-.474-1.503l-.082-.166a4.787 4.787 0 00-.895-1.276 2.476 2.476 0 00-1.164-.7c-.429-.11-.882-.048-1.358.187-.471.232-.794.552-.967.96-.169.406-.22.855-.154 1.349.07.491.229.985.474 1.483l.082.166zm13.025-9.955l2.198-.582-.748 10.103-1.89.5-5.677-8.402 2.207-.584 3.712 6.066.198-7.101zm10.485 8.496c-.947.061-1.778-.09-2.493-.451a4.23 4.23 0 01-1.697-1.558c-.416-.677-.651-1.448-.707-2.314l-.023-.362c-.064-.995.069-1.872.398-2.633.33-.766.807-1.373 1.435-1.821.633-.449 1.365-.7 2.195-.753.919-.059 1.694.092 2.326.454.632.355 1.12.877 1.466 1.564.345.681.548 1.484.607 2.408l.06.945-6.234.4c.105.721.394 1.306.866 1.754.472.443 1.079.64 1.82.593.513-.033.96-.163 1.342-.388a3.08 3.08 0 00.977-.932l1.222 1.074c-.277.473-.704.915-1.28 1.324-.578.404-1.337.636-2.28.696zm-.788-8.134c-.583.038-1.037.274-1.364.709-.327.434-.518 1.008-.572 1.721l4.027-.259-.011-.167a2.924 2.924 0 00-.288-1.028 1.734 1.734 0 00-.669-.747c-.29-.182-.664-.258-1.123-.229zm7.018 3.074c.138-.957.408-1.776.811-2.457.41-.686.92-1.19 1.533-1.513.614-.328 1.31-.436 2.086-.324.514.075.956.234 1.326.478.377.24.69.55.938.932l.704-4.861 2.172.315-1.948 13.452-1.97-.285.04-1.023c-.352.33-.753.57-1.204.72-.45.144-.95.176-1.498.096-.765-.11-1.395-.413-1.89-.908-.493-.501-.84-1.135-1.038-1.903-.193-.767-.223-1.612-.09-2.535l.027-.184zm2.144.499a5.317 5.317 0 00-.011 1.563c.074.475.243.873.507 1.191.27.313.657.506 1.159.58.467.067.868.018 1.202-.149.34-.165.622-.407.847-.727l.58-4.002a2.07 2.07 0 00-.61-.92c-.273-.248-.638-.405-1.093-.471-.503-.073-.928.006-1.277.235-.35.23-.63.565-.843 1.005a5.343 5.343 0 00-.434 1.51l-.027.185zm16.507 2.266c.239-.508.595-.848 1.069-1.023.474-.175.985-.133 1.535.126.56.264.924.635 1.091 1.111.167.476.131.968-.108 1.475l-.147.312c-.239.507-.594.846-1.065 1.015-.466.172-.979.126-1.539-.138-.55-.26-.912-.626-1.087-1.1-.169-.47-.135-.96.104-1.466l.147-.312z" fill="#1976D2"/></svg>