<svg class="logo" width="291" height="56" fill="none" xmlns="http://www.w3.org/2000/svg"><g clip-path="url(#clip0_2_209)" fill="#1976D2"><path fill-rule="evenodd" clip-rule="evenodd" d="M25.309 55.143l9.643-7.412h4.731c4.496 0 8.14-3.637 8.14-8.124V8.124C47.823 3.637 44.18 0 39.683 0H8.14C3.644 0 0 3.637 0 8.124v31.483c0 4.487 3.644 8.124 8.14 8.124h14.245v5.976a1.814 1.814 0 002.924 1.436zM6.105 8.124c0-1.121.911-2.03 2.035-2.03h31.543c1.124 0 2.035.909 2.035 2.03v31.483a2.033 2.033 0 01-2.035 2.031H8.14a2.033 2.033 0 01-2.035-2.031V8.124z"/><path fill-rule="evenodd" clip-rule="evenodd" d="M19.078 24.12c0 2.523 2.05 4.57 4.58 4.57a4.574 4.574 0 004.578-4.57c0-2.524-2.05-4.57-4.579-4.57a4.574 4.574 0 00-4.579 4.57zm6.614 0a2.033 2.033 0 01-2.035 2.03 2.033 2.033 0 01-2.035-2.03c0-1.122.911-2.032 2.035-2.032s2.035.91 2.035 2.032z"/><path d="M25.183 20.819a1.27 1.27 0 01-2.544 0V10.156c0-.701.57-1.27 1.273-1.27a1.27 1.27 0 011.271 1.27v10.663zm2.29 4.57a1.27 1.27 0 110-2.539h10.684a1.27 1.27 0 110 2.539H27.473zm-12.152 6.809a1.274 1.274 0 01-1.792-.15 1.268 1.268 0 01.149-1.789l6.214-5.247a1.274 1.274 0 011.793.149 1.268 1.268 0 01-.15 1.789l-6.214 5.248z"/><path fill-rule="evenodd" clip-rule="evenodd" d="M68.782 36.117c-1.15 0-1.726-.314-1.726-.942V16.944h-5.535c-.304 0-.526-.109-.668-.325-.14-.217-.211-.575-.211-1.073v-.845c0-.498.07-.856.211-1.072.142-.217.364-.325.668-.325h15.336c.304 0 .526.108.667.325.141.216.212.574.212 1.072v.845c0 .498-.07.856-.212 1.073-.14.216-.363.325-.667.325h-5.503v18.23c0 .63-.575.943-1.726.943h-.846zm13.545.033c-1.172 0-1.758-.325-1.758-.975V14.18c0-.65.586-.975 1.758-.975h.814c1.15 0 1.726.325 1.726.975v20.994c0 .65-.576.975-1.726.975h-.814zm18.234-5.85c-.499 0-.869-.184-1.108-.552L94.83 21.59a8.397 8.397 0 01-.75-1.333l-.129.033c.021.368.033.92.033 1.657v13.227c0 .628-.576.942-1.726.942h-.716c-1.151 0-1.726-.314-1.726-.942V14.18c0-.628.575-.942 1.726-.942h1.53c.934 0 1.54.26 1.823.78l5.666 9.977c.217.368.39.725.521 1.072.086-.282.26-.65.52-1.105l5.699-9.944c.282-.52.879-.78 1.791-.78h1.498c1.15 0 1.725.314 1.725.942v20.994c0 .628-.575.942-1.725.942h-.717c-1.151 0-1.726-.314-1.726-.942V22.013c0-.736.011-1.289.033-1.657l-.131-.033a8.32 8.32 0 01-.748 1.333l-4.591 8.092c-.239.368-.608.552-1.108.552h-1.041zm18.136 5.752c-.413 0-.716-.097-.911-.292-.196-.195-.294-.498-.294-.91V14.506c0-.433.098-.742.294-.926.195-.184.498-.276.911-.276h11.396c.304 0 .526.108.668.325.141.216.212.574.212 1.072v.845c0 .498-.071.856-.212 1.073-.142.216-.364.325-.668.325h-8.335v5.654h7.424c.303 0 .526.108.667.325.141.217.212.574.212 1.073v.845c0 .498-.071.855-.212 1.072-.141.217-.364.325-.667.325h-7.424v6.175h8.368c.303 0 .526.108.667.325.141.216.212.574.212 1.072v.845c0 .498-.071.856-.212 1.072-.141.217-.364.325-.667.325h-11.429zm24.767-5.042c-.629 0-.943-.172-.943-.515V19.192c0-.237.053-.406.16-.507.107-.1.273-.15.499-.15h5.769c.166 0 .287.058.364.177.077.118.117.314.117.586v.462c0 .273-.04.468-.117.587-.077.118-.198.178-.364.178h-4.096v3.092h3.9c.166 0 .287.06.364.178.078.118.117.314.117.586v.462c0 .273-.039.468-.117.587-.077.118-.198.178-.364.178h-3.9v4.887a.417.417 0 01-.222.39c-.148.084-.389.125-.721.125h-.446zm13.053.09c-1.817 0-3.212-.546-4.185-1.636-.974-1.09-1.46-2.666-1.46-4.727 0-2.05.486-3.617 1.46-4.701.973-1.084 2.368-1.626 4.185-1.626 1.816 0 3.207.539 4.175 1.617.968 1.078 1.452 2.648 1.452 4.71 0 2.061-.484 3.637-1.452 4.727-.968 1.09-2.359 1.635-4.175 1.635zm0-1.991c1.044 0 1.842-.374 2.394-1.12.553-.747.828-1.83.828-3.252 0-1.422-.273-2.5-.819-3.235-.546-.735-1.347-1.102-2.403-1.102-1.057 0-1.862.367-2.414 1.102-.551.735-.828 1.813-.828 3.235 0 1.421.277 2.506.828 3.252.552.746 1.357 1.12 2.414 1.12zm8.849 1.901c-.629 0-.944-.172-.944-.515V19.192c0-.226.051-.391.151-.498.102-.107.265-.16.49-.16h3.312c1.484 0 2.585.273 3.303.818.719.545 1.078 1.362 1.078 2.452 0 .687-.184 1.28-.553 1.777-.367.498-.872.871-1.512 1.12v.071c.26.095.51.305.747.631.238.326.451.726.641 1.2l1.514 3.767c.047.166.071.267.071.303 0 .225-.32.337-.962.337h-.533c-.523 0-.832-.112-.926-.337l-1.39-3.484c-.213-.486-.465-.823-.757-1.013-.29-.19-.732-.284-1.326-.284h-1.015v4.603c0 .343-.314.515-.943.515h-.446zm3.312-7.126c.452 0 .843-.175 1.175-.525.333-.35.499-.761.499-1.235 0-.51-.16-.903-.48-1.182-.321-.278-.761-.417-1.318-.417h-1.799v3.359h1.923z"/><path d="M141.18 15.995a1.016 1.016 0 110-2.031h32.56a1.016 1.016 0 110 2.031h-32.56zm0 19.295a1.016 1.016 0 110-2.03h32.56a1.016 1.016 0 110 2.03h-32.56z"/><path fill-rule="evenodd" clip-rule="evenodd" d="M184.089 36.117c-1.195 0-1.792-.216-1.792-.65 0-.064.044-.249.131-.552l7.359-21.059c.13-.411.683-.617 1.66-.617h1.433c.955 0 1.508.206 1.66.617l7.359 21.059c.065.217.097.4.097.553 0 .433-.52.65-1.562.65h-1.009c-.956 0-1.51-.206-1.661-.618l-1.498-4.452h-8.335l-1.498 4.452c-.153.412-.629.617-1.433.617h-.911zm10.94-8.709l-2.377-7.15c-.174-.498-.326-1.17-.456-2.014h-.13c-.022.13-.076.411-.163.845a7.72 7.72 0 01-.325 1.17l-2.442 7.149h5.893zm11.005 8.645c-.413 0-.716-.098-.911-.293-.196-.195-.293-.498-.293-.91V14.506c0-.433.097-.742.293-.926.195-.184.498-.276.911-.276h6.838c3.235 0 5.757.953 7.57 2.86 1.812 1.906 2.719 4.744 2.719 8.514 0 3.77-.907 6.608-2.719 8.515-1.813 1.906-4.335 2.86-7.57 2.86h-6.838zm6.741-3.64c1.888 0 3.359-.645 4.411-1.934 1.053-1.289 1.58-3.223 1.58-5.8 0-2.579-.527-4.513-1.58-5.802-1.052-1.289-2.523-1.933-4.411-1.933h-3.647v15.469h3.647zm21.261 3.704c-.976 0-1.52-.205-1.628-.617l-7.196-21.059a2.266 2.266 0 01-.097-.552c0-.433.586-.65 1.758-.65h.814c.955 0 1.519.26 1.693.78l4.982 15.209.325 1.332h.131l.357-1.332 5.047-15.21c.175-.52.739-.78 1.694-.78h.749c1.172 0 1.757.218 1.757.65 0 .13-.032.315-.097.553L237.129 35.5c-.108.412-.651.617-1.628.617h-1.465zm15.011.033c-1.173 0-1.759-.325-1.759-.975V14.181c0-.65.586-.975 1.759-.975h.814c1.15 0 1.725.325 1.725.975v20.994c0 .65-.575.975-1.725.975h-.814zm17.257.13c-3.647 0-6.334-.942-8.059-2.827-1.726-1.885-2.588-4.82-2.588-8.807 0-7.713 3.591-11.57 10.777-11.57 1.063 0 2.138.114 3.223.342 1.085.227 1.932.514 2.54.86.542.304.814.63.814.976 0 .26-.103.601-.309 1.024a5.562 5.562 0 01-.717 1.12c-.271.326-.515.488-.732.488-.065 0-.326-.108-.782-.325-.456-.216-1.025-.412-1.71-.585-.683-.173-1.481-.26-2.393-.26-2.149 0-3.739.65-4.769 1.95-1.032 1.3-1.547 3.304-1.547 6.012 0 2.665.515 4.658 1.547 5.98 1.03 1.321 2.599 1.982 4.705 1.982.998 0 1.866-.108 2.604-.325a13.79 13.79 0 002.117-.812c.347-.174.585-.26.716-.26.239 0 .483.157.733.471.249.314.461.677.634 1.089.175.411.261.704.261.877 0 .498-.369.953-1.107 1.365-.694.39-1.596.693-2.703.91a16.912 16.912 0 01-3.255.325zm11.819-.227c-.413 0-.717-.098-.912-.293-.195-.195-.293-.498-.293-.91V14.506c0-.433.098-.742.293-.926.195-.184.499-.276.912-.276h11.396c.304 0 .527.108.668.325.141.216.211.574.211 1.072v.845c0 .499-.07.856-.211 1.073-.141.216-.364.325-.668.325h-8.335v5.654h7.423c.304 0 .527.109.668.325.141.217.212.574.212 1.073v.845c0 .498-.071.855-.212 1.072-.141.217-.364.325-.668.325h-7.423v6.175h8.367c.305 0 .527.108.668.325.141.216.212.574.212 1.072v.845c0 .498-.071.856-.212 1.072-.141.217-.363.326-.668.326h-11.428z"/></g><defs><clipPath id="clip0_2_209"><path fill="#fff" d="M0 0h290.5v56H0z"/></clipPath></defs></svg>